<svg id="visual" viewBox="0 0 900 450" width="900" height="450" xmlns="http://www.w3.org/2000/svg" xmlns:xlink="http://www.w3.org/1999/xlink" version="1.1"><path d="M0 293L21.5 289.5C43 286 86 279 128.8 282.7C171.7 286.3 214.3 300.7 257.2 302.7C300 304.7 343 294.3 385.8 294.8C428.7 295.3 471.3 306.7 514.2 303C557 299.3 600 280.7 642.8 278.3C685.7 276 728.3 290 771.2 296.8C814 303.7 857 303.3 878.5 303.2L900 303L900 451L878.5 451C857 451 814 451 771.2 451C728.3 451 685.7 451 642.8 451C600 451 557 451 514.2 451C471.3 451 428.7 451 385.8 451C343 451 300 451 257.2 451C214.3 451 171.7 451 128.8 451C86 451 43 451 21.5 451L0 451Z" fill="#69f3fa"></path><path d="M0 338L21.5 333C43 328 86 318 128.8 318C171.7 318 214.3 328 257.2 331.2C300 334.3 343 330.7 385.8 331.8C428.7 333 471.3 339 514.2 341.3C557 343.7 600 342.3 642.8 334.5C685.7 326.7 728.3 312.3 771.2 305.7C814 299 857 300 878.5 300.5L900 301L900 451L878.5 451C857 451 814 451 771.2 451C728.3 451 685.7 451 642.8 451C600 451 557 451 514.2 451C471.3 451 428.7 451 385.8 451C343 451 300 451 257.2 451C214.3 451 171.7 451 128.8 451C86 451 43 451 21.5 451L0 451Z" fill="#13d6ff"></path><path d="M0 353L21.5 349.8C43 346.7 86 340.3 128.8 339.7C171.7 339 214.3 344 257.2 347.3C300 350.7 343 352.3 385.8 354C428.7 355.7 471.3 357.3 514.2 356.3C557 355.3 600 351.7 642.8 354C685.7 356.3 728.3 364.7 771.2 361.2C814 357.7 857 342.3 878.5 334.7L900 327L900 451L878.5 451C857 451 814 451 771.2 451C728.3 451 685.7 451 642.8 451C600 451 557 451 514.2 451C471.3 451 428.7 451 385.8 451C343 451 300 451 257.2 451C214.3 451 171.7 451 128.8 451C86 451 43 451 21.5 451L0 451Z" fill="#00b6ff"></path><path d="M0 382L21.5 383.5C43 385 86 388 128.8 385C171.7 382 214.3 373 257.2 370.2C300 367.3 343 370.7 385.8 374C428.7 377.3 471.3 380.7 514.2 382.3C557 384 600 384 642.8 386.8C685.7 389.7 728.3 395.3 771.2 392C814 388.7 857 376.3 878.5 370.2L900 364L900 451L878.5 451C857 451 814 451 771.2 451C728.3 451 685.7 451 642.8 451C600 451 557 451 514.2 451C471.3 451 428.7 451 385.8 451C343 451 300 451 257.2 451C214.3 451 171.7 451 128.8 451C86 451 43 451 21.5 451L0 451Z" fill="#0092f7"></path><path d="M0 423L21.5 418.8C43 414.7 86 406.3 128.8 401.8C171.7 397.3 214.3 396.7 257.2 400.2C300 403.7 343 411.3 385.8 414C428.7 416.7 471.3 414.3 514.2 415.8C557 417.3 600 422.7 642.8 419.8C685.7 417 728.3 406 771.2 406.2C814 406.3 857 417.7 878.5 423.3L900 429L900 451L878.5 451C857 451 814 451 771.2 451C728.3 451 685.7 451 642.8 451C600 451 557 451 514.2 451C471.3 451 428.7 451 385.8 451C343 451 300 451 257.2 451C214.3 451 171.7 451 128.8 451C86 451 43 451 21.5 451L0 451Z" fill="#3969e3"></path></svg>