<svg id="visual" viewBox="0 0 960 540" width="960" height="540" xmlns="http://www.w3.org/2000/svg" xmlns:xlink="http://www.w3.org/1999/xlink" version="1.1"><path d="M0 498L16 503.7C32 509.3 64 520.7 96 523.7C128 526.7 160 521.3 192 515.3C224 509.3 256 502.7 288 501.8C320 501 352 506 384 507.8C416 509.7 448 508.3 480 505.3C512 502.3 544 497.7 576 500.5C608 503.3 640 513.7 672 516.8C704 520 736 516 768 516C800 516 832 520 864 522.8C896 525.7 928 527.3 944 528.2L960 529L960 541L944 541C928 541 896 541 864 541C832 541 800 541 768 541C736 541 704 541 672 541C640 541 608 541 576 541C544 541 512 541 480 541C448 541 416 541 384 541C352 541 320 541 288 541C256 541 224 541 192 541C160 541 128 541 96 541C64 541 32 541 16 541L0 541Z" fill="#387093"></path></svg>